<?xml version="1.0" encoding="UTF-8"?>
<?xml-stylesheet href="https://cdnjs.cloudflare.com/ajax/libs/font-awesome/6.5.2/css/all.min.css" type="text/css"?>
<svg aria-roledescription="gitGraph" role="graphics-document document" viewBox="-224.9166717529297 -34.70000076293945 682.9166870117188 324.70001220703125" height="100%" xmlns="http://www.w3.org/2000/svg" width="682.9166870117188" id="graph-div" style="max-width: 100%;" xmlns:xlink="http://www.w3.org/1999/xlink"><style>#graph-div{font-family:"trebuchet ms",verdana,arial,sans-serif;font-size:16px;fill:#ccc;}#graph-div .error-icon{fill:#a44141;}#graph-div .error-text{fill:#ddd;stroke:#ddd;}#graph-div .edge-thickness-normal{stroke-width:2px;}#graph-div .edge-thickness-thick{stroke-width:3.5px;}#graph-div .edge-pattern-solid{stroke-dasharray:0;}#graph-div .edge-pattern-dashed{stroke-dasharray:3;}#graph-div .edge-pattern-dotted{stroke-dasharray:2;}#graph-div .marker{fill:lightgrey;stroke:lightgrey;}#graph-div .marker.cross{stroke:lightgrey;}#graph-div svg{font-family:"trebuchet ms",verdana,arial,sans-serif;font-size:16px;}#graph-div .commit-id,#graph-div .commit-msg,#graph-div .branch-label{fill:lightgrey;color:lightgrey;font-family:'trebuchet ms',verdana,arial,sans-serif;font-family:var(--mermaid-font-family);}#graph-div .branch-label0{fill:#2c2c2c;}#graph-div .commit0{stroke:hsl(180, 1.5873015873%, 48.3529411765%);fill:hsl(180, 1.5873015873%, 48.3529411765%);}#graph-div .commit-highlight0{stroke:rgb(133.6571428571, 129.7428571428, 129.7428571428);fill:rgb(133.6571428571, 129.7428571428, 129.7428571428);}#graph-div .label0{fill:hsl(180, 1.5873015873%, 48.3529411765%);}#graph-div .arrow0{stroke:hsl(180, 1.5873015873%, 48.3529411765%);}#graph-div .branch-label1{fill:lightgrey;}#graph-div .commit1{stroke:hsl(321.6393442623, 65.5913978495%, 38.2352941176%);fill:hsl(321.6393442623, 65.5913978495%, 38.2352941176%);}#graph-div .commit-highlight1{stroke:rgb(93.5483870969, 221.4516129033, 139.677419355);fill:rgb(93.5483870969, 221.4516129033, 139.677419355);}#graph-div .label1{fill:hsl(321.6393442623, 65.5913978495%, 38.2352941176%);}#graph-div .arrow1{stroke:hsl(321.6393442623, 65.5913978495%, 38.2352941176%);}#graph-div .branch-label2{fill:lightgrey;}#graph-div .commit2{stroke:hsl(194.4, 16.5562913907%, 49.6078431373%);fill:hsl(194.4, 16.5562913907%, 49.6078431373%);}#graph-div .commit-highlight2{stroke:rgb(149.4437086091, 117.6092715231, 107.5562913906);fill:rgb(149.4437086091, 117.6092715231, 107.5562913906);}#graph-div .label2{fill:hsl(194.4, 16.5562913907%, 49.6078431373%);}#graph-div .arrow2{stroke:hsl(194.4, 16.5562913907%, 49.6078431373%);}#graph-div .branch-label3{fill:#2c2c2c;}#graph-div .commit3{stroke:hsl(23.0769230769, 49.0566037736%, 40.7843137255%);fill:hsl(23.0769230769, 49.0566037736%, 40.7843137255%);}#graph-div .commit-highlight3{stroke:rgb(99.9811320754, 162.7735849057, 202.0188679245);fill:rgb(99.9811320754, 162.7735849057, 202.0188679245);}#graph-div .label3{fill:hsl(23.0769230769, 49.0566037736%, 40.7843137255%);}#graph-div .arrow3{stroke:hsl(23.0769230769, 49.0566037736%, 40.7843137255%);}#graph-div .branch-label4{fill:lightgrey;}#graph-div .commit4{stroke:hsl(0, 83.3333333333%, 43.5294117647%);fill:hsl(0, 83.3333333333%, 43.5294117647%);}#graph-div .commit-highlight4{stroke:rgb(51.5000000001, 236.5, 236.5);fill:rgb(51.5000000001, 236.5, 236.5);}#graph-div .label4{fill:hsl(0, 83.3333333333%, 43.5294117647%);}#graph-div .arrow4{stroke:hsl(0, 83.3333333333%, 43.5294117647%);}#graph-div .branch-label5{fill:lightgrey;}#graph-div .commit5{stroke:hsl(289.1666666667, 100%, 24.1176470588%);fill:hsl(289.1666666667, 100%, 24.1176470588%);}#graph-div .commit-highlight5{stroke:rgb(154.2083333334, 255, 132.0000000001);fill:rgb(154.2083333334, 255, 132.0000000001);}#graph-div .label5{fill:hsl(289.1666666667, 100%, 24.1176470588%);}#graph-div .arrow5{stroke:hsl(289.1666666667, 100%, 24.1176470588%);}#graph-div .branch-label6{fill:lightgrey;}#graph-div .commit6{stroke:hsl(35.1315789474, 98.7012987013%, 40.1960784314%);fill:hsl(35.1315789474, 98.7012987013%, 40.1960784314%);}#graph-div .commit-highlight6{stroke:rgb(51.331168831, 135.1948051946, 253.6688311688);fill:rgb(51.331168831, 135.1948051946, 253.6688311688);}#graph-div .label6{fill:hsl(35.1315789474, 98.7012987013%, 40.1960784314%);}#graph-div .arrow6{stroke:hsl(35.1315789474, 98.7012987013%, 40.1960784314%);}#graph-div .branch-label7{fill:lightgrey;}#graph-div .commit7{stroke:hsl(106.1538461538, 84.4155844156%, 35.0980392157%);fill:hsl(106.1538461538, 84.4155844156%, 35.0980392157%);}#graph-div .commit-highlight7{stroke:rgb(206.1818181817, 89.948051948, 241.051948052);fill:rgb(206.1818181817, 89.948051948, 241.051948052);}#graph-div .label7{fill:hsl(106.1538461538, 84.4155844156%, 35.0980392157%);}#graph-div .arrow7{stroke:hsl(106.1538461538, 84.4155844156%, 35.0980392157%);}#graph-div .branch{stroke-width:1;stroke:lightgrey;stroke-dasharray:2;}#graph-div .commit-label{font-size:10px;fill:rgb(183.8476190475, 181.5523809523, 181.5523809523);}#graph-div .commit-label-bkg{font-size:10px;fill:hsl(180, 1.5873015873%, 28.3529411765%);opacity:0.5;}#graph-div .tag-label{font-size:10px;fill:#e0dfdf;}#graph-div .tag-label-bkg{fill:#1f2020;stroke:#cccccc;}#graph-div .tag-hole{fill:#ccc;}#graph-div .commit-merge{stroke:#1f2020;fill:#1f2020;}#graph-div .commit-reverse{stroke:#1f2020;fill:#1f2020;stroke-width:3;}#graph-div .commit-highlight-inner{stroke:#1f2020;fill:#1f2020;}#graph-div .arrow{stroke-width:8;stroke-linecap:round;fill:none;}#graph-div .gitTitleText{text-anchor:middle;font-size:18px;fill:#ccc;}#graph-div :root{--mermaid-font-family:"trebuchet ms",verdana,arial,sans-serif;}</style><g></g><g class="commit-bullets"></g><g class="commit-labels"></g><g><line class="branch branch0" y2="0" x2="450" y1="0" x1="0"></line><rect transform="translate(-19, -9.5)" height="23" width="53" y="-1.5" x="-69" ry="4" rx="4" class="branchLabelBkg label0"></rect><g class="branchLabel"><g transform="translate(-79, -10.5)" class="label branch-label0"><text><tspan class="row" x="0" dy="1em" xml:space="preserve">main</tspan></text></g></g><line class="branch branch1" y2="90" x2="450" y1="90" x1="0"></line><rect transform="translate(-19, 80.5)" height="23" width="122.78333282470703" y="-1.5" x="-138.78333282470703" ry="4" rx="4" class="branchLabelBkg label1"></rect><g class="branchLabel"><g transform="translate(-148.78333282470703, 79.5)" class="label branch-label1"><text><tspan class="row" x="0" dy="1em" xml:space="preserve">release/v4.0.x</tspan></text></g></g><line class="branch branch2" y2="180" x2="450" y1="180" x1="0"></line><rect transform="translate(-19, 170.5)" height="23" width="122.78333282470703" y="-1.5" x="-138.78333282470703" ry="4" rx="4" class="branchLabelBkg label2"></rect><g class="branchLabel"><g transform="translate(-148.78333282470703, 169.5)" class="label branch-label2"><text><tspan class="row" x="0" dy="1em" xml:space="preserve">release/v5.0.x</tspan></text></g></g><line class="branch branch3" y2="270" x2="450" y1="270" x1="0"></line><rect transform="translate(-19, 260.5)" height="23" width="181.9166717529297" y="-1.5" x="-197.9166717529297" ry="4" rx="4" class="branchLabelBkg label3"></rect><g class="branchLabel"><g transform="translate(-207.9166717529297, 259.5)" class="label branch-label3"><text><tspan class="row" x="0" dy="1em" xml:space="preserve">bugfix/error_condition</tspan></text></g></g></g><g class="commit-arrows"><path class="arrow arrow1" d="M 10 0 L 10 70 A 20 20, 0, 0, 0, 30 90 L 60 90"></path><path class="arrow arrow0" d="M 10 0 L 110 0"></path><path class="arrow arrow1" d="M 60 90 L 90 90 A 20 20, 0, 0, 0, 110 70 L 110 0"></path><path class="arrow arrow2" d="M 110 0 L 110 160 A 20 20, 0, 0, 0, 130 180 L 160 180"></path><path class="arrow arrow3" d="M 60 90 L 60 250 A 20 20, 0, 0, 0, 80 270 L 210 270"></path><path class="arrow arrow3" d="M 210 270 L 260 270"></path><path class="arrow arrow1" d="M 60 90 L 310 90"></path><path class="arrow arrow3" d="M 260 270 L 290 270 A 20 20, 0, 0, 0, 310 250 L 310 90"></path><path class="arrow arrow2" d="M 160 180 L 360 180"></path><path class="arrow arrow0" d="M 110 0 L 410 0"></path><path class="arrow arrow2" d="M 360 180 L 390 180 A 20 20, 0, 0, 0, 410 160 L 410 0"></path></g><g class="commit-bullets"><circle class="commit 0-154075a commit0" r="10" cy="0" cx="10"></circle><circle class="commit 1-ade4f52 commit1" r="10" cy="90" cx="60"></circle><circle class="commit 2-bd9d53d commit0" r="9" cy="0" cx="110"></circle><circle class="commit commit-merge 2-bd9d53d commit0" r="6" cy="0" cx="110"></circle><circle class="commit 3-e70e080 commit2" r="10" cy="180" cx="160"></circle><circle class="commit 4-ba1d5ef commit3" r="10" cy="270" cx="210"></circle><circle class="commit 5-dc0ff3e commit3" r="10" cy="270" cx="260"></circle><circle class="commit 6-77a9c65 commit1" r="9" cy="90" cx="310"></circle><circle class="commit commit-merge 6-77a9c65 commit1" r="6" cy="90" cx="310"></circle><circle class="commit 7-5f48fec commit2" r="10" cy="180" cx="360"></circle><circle class="commit 8-9d8422d commit0" r="9" cy="0" cx="410"></circle><circle class="commit commit-merge 8-9d8422d commit0" r="6" cy="0" cx="410"></circle></g><g class="commit-labels"><polygon points="-19,-17.2
          -19,-21.2
          -11,-26.7
          31,-26.7
          31,-11.7
          -11,-11.7" class="tag-label-bkg"></polygon><circle class="tag-hole" r="1.5" cy="-19.2" cx="-15"></circle><text x="-7" class="tag-label" y="-16">v3.0.0</text><polygon points="81,-17.2
          81,-21.2
          89,-26.7
          131,-26.7
          131,-11.7
          89,-11.7" class="tag-label-bkg"></polygon><circle class="tag-hole" r="1.5" cy="-19.2" cx="85"></circle><text x="93" class="tag-label" y="-16">v4.0.0</text><polygon points="281,72.8
          281,68.8
          289,63.3
          331,63.3
          331,78.3
          289,78.3" class="tag-label-bkg"></polygon><circle class="tag-hole" r="1.5" cy="70.8" cx="285"></circle><text x="293" class="tag-label" y="74">v4.0.1</text><polygon points="381,-17.2
          381,-21.2
          389,-26.7
          431,-26.7
          431,-11.7
          389,-11.7" class="tag-label-bkg"></polygon><circle class="tag-hole" r="1.5" cy="-19.2" cx="385"></circle><text x="393" class="tag-label" y="-16">v5.0.0</text></g></svg>