<?xml version="1.0" encoding="UTF-8"?>
<?xml-stylesheet href="https://cdnjs.cloudflare.com/ajax/libs/font-awesome/6.5.2/css/all.min.css" type="text/css"?>
<svg aria-roledescription="gitGraph" role="graphics-document document" viewBox="-195.4166717529297 -34.70000076293945 953.4166870117188 684.7000122070312" height="100%" xmlns="http://www.w3.org/2000/svg" width="953.4166870117188" id="graph-div" style="max-width: 100%;" xmlns:xlink="http://www.w3.org/1999/xlink"><style>#graph-div{font-family:"trebuchet ms",verdana,arial,sans-serif;font-size:16px;fill:#ccc;}#graph-div .error-icon{fill:#a44141;}#graph-div .error-text{fill:#ddd;stroke:#ddd;}#graph-div .edge-thickness-normal{stroke-width:2px;}#graph-div .edge-thickness-thick{stroke-width:3.5px;}#graph-div .edge-pattern-solid{stroke-dasharray:0;}#graph-div .edge-pattern-dashed{stroke-dasharray:3;}#graph-div .edge-pattern-dotted{stroke-dasharray:2;}#graph-div .marker{fill:lightgrey;stroke:lightgrey;}#graph-div .marker.cross{stroke:lightgrey;}#graph-div svg{font-family:"trebuchet ms",verdana,arial,sans-serif;font-size:16px;}#graph-div .commit-id,#graph-div .commit-msg,#graph-div .branch-label{fill:lightgrey;color:lightgrey;font-family:'trebuchet ms',verdana,arial,sans-serif;font-family:var(--mermaid-font-family);}#graph-div .branch-label0{fill:#2c2c2c;}#graph-div .commit0{stroke:hsl(180, 1.5873015873%, 48.3529411765%);fill:hsl(180, 1.5873015873%, 48.3529411765%);}#graph-div .commit-highlight0{stroke:rgb(133.6571428571, 129.7428571428, 129.7428571428);fill:rgb(133.6571428571, 129.7428571428, 129.7428571428);}#graph-div .label0{fill:hsl(180, 1.5873015873%, 48.3529411765%);}#graph-div .arrow0{stroke:hsl(180, 1.5873015873%, 48.3529411765%);}#graph-div .branch-label1{fill:lightgrey;}#graph-div .commit1{stroke:hsl(321.6393442623, 65.5913978495%, 38.2352941176%);fill:hsl(321.6393442623, 65.5913978495%, 38.2352941176%);}#graph-div .commit-highlight1{stroke:rgb(93.5483870969, 221.4516129033, 139.677419355);fill:rgb(93.5483870969, 221.4516129033, 139.677419355);}#graph-div .label1{fill:hsl(321.6393442623, 65.5913978495%, 38.2352941176%);}#graph-div .arrow1{stroke:hsl(321.6393442623, 65.5913978495%, 38.2352941176%);}#graph-div .branch-label2{fill:lightgrey;}#graph-div .commit2{stroke:hsl(194.4, 16.5562913907%, 49.6078431373%);fill:hsl(194.4, 16.5562913907%, 49.6078431373%);}#graph-div .commit-highlight2{stroke:rgb(149.4437086091, 117.6092715231, 107.5562913906);fill:rgb(149.4437086091, 117.6092715231, 107.5562913906);}#graph-div .label2{fill:hsl(194.4, 16.5562913907%, 49.6078431373%);}#graph-div .arrow2{stroke:hsl(194.4, 16.5562913907%, 49.6078431373%);}#graph-div .branch-label3{fill:#2c2c2c;}#graph-div .commit3{stroke:hsl(23.0769230769, 49.0566037736%, 40.7843137255%);fill:hsl(23.0769230769, 49.0566037736%, 40.7843137255%);}#graph-div .commit-highlight3{stroke:rgb(99.9811320754, 162.7735849057, 202.0188679245);fill:rgb(99.9811320754, 162.7735849057, 202.0188679245);}#graph-div .label3{fill:hsl(23.0769230769, 49.0566037736%, 40.7843137255%);}#graph-div .arrow3{stroke:hsl(23.0769230769, 49.0566037736%, 40.7843137255%);}#graph-div .branch-label4{fill:lightgrey;}#graph-div .commit4{stroke:hsl(0, 83.3333333333%, 43.5294117647%);fill:hsl(0, 83.3333333333%, 43.5294117647%);}#graph-div .commit-highlight4{stroke:rgb(51.5000000001, 236.5, 236.5);fill:rgb(51.5000000001, 236.5, 236.5);}#graph-div .label4{fill:hsl(0, 83.3333333333%, 43.5294117647%);}#graph-div .arrow4{stroke:hsl(0, 83.3333333333%, 43.5294117647%);}#graph-div .branch-label5{fill:lightgrey;}#graph-div .commit5{stroke:hsl(289.1666666667, 100%, 24.1176470588%);fill:hsl(289.1666666667, 100%, 24.1176470588%);}#graph-div .commit-highlight5{stroke:rgb(154.2083333334, 255, 132.0000000001);fill:rgb(154.2083333334, 255, 132.0000000001);}#graph-div .label5{fill:hsl(289.1666666667, 100%, 24.1176470588%);}#graph-div .arrow5{stroke:hsl(289.1666666667, 100%, 24.1176470588%);}#graph-div .branch-label6{fill:lightgrey;}#graph-div .commit6{stroke:hsl(35.1315789474, 98.7012987013%, 40.1960784314%);fill:hsl(35.1315789474, 98.7012987013%, 40.1960784314%);}#graph-div .commit-highlight6{stroke:rgb(51.331168831, 135.1948051946, 253.6688311688);fill:rgb(51.331168831, 135.1948051946, 253.6688311688);}#graph-div .label6{fill:hsl(35.1315789474, 98.7012987013%, 40.1960784314%);}#graph-div .arrow6{stroke:hsl(35.1315789474, 98.7012987013%, 40.1960784314%);}#graph-div .branch-label7{fill:lightgrey;}#graph-div .commit7{stroke:hsl(106.1538461538, 84.4155844156%, 35.0980392157%);fill:hsl(106.1538461538, 84.4155844156%, 35.0980392157%);}#graph-div .commit-highlight7{stroke:rgb(206.1818181817, 89.948051948, 241.051948052);fill:rgb(206.1818181817, 89.948051948, 241.051948052);}#graph-div .label7{fill:hsl(106.1538461538, 84.4155844156%, 35.0980392157%);}#graph-div .arrow7{stroke:hsl(106.1538461538, 84.4155844156%, 35.0980392157%);}#graph-div .branch{stroke-width:1;stroke:lightgrey;stroke-dasharray:2;}#graph-div .commit-label{font-size:10px;fill:rgb(183.8476190475, 181.5523809523, 181.5523809523);}#graph-div .commit-label-bkg{font-size:10px;fill:hsl(180, 1.5873015873%, 28.3529411765%);opacity:0.5;}#graph-div .tag-label{font-size:10px;fill:#e0dfdf;}#graph-div .tag-label-bkg{fill:#1f2020;stroke:#cccccc;}#graph-div .tag-hole{fill:#ccc;}#graph-div .commit-merge{stroke:#1f2020;fill:#1f2020;}#graph-div .commit-reverse{stroke:#1f2020;fill:#1f2020;stroke-width:3;}#graph-div .commit-highlight-inner{stroke:#1f2020;fill:#1f2020;}#graph-div .arrow{stroke-width:8;stroke-linecap:round;fill:none;}#graph-div .gitTitleText{text-anchor:middle;font-size:18px;fill:#ccc;}#graph-div :root{--mermaid-font-family:"trebuchet ms",verdana,arial,sans-serif;}</style><g></g><g class="commit-bullets"></g><g class="commit-labels"></g><g><line class="branch branch0" y2="0" x2="750" y1="0" x1="0"></line><rect transform="translate(-19, -9.5)" height="23" width="53" y="-1.5" x="-69" ry="4" rx="4" class="branchLabelBkg label0"></rect><g class="branchLabel"><g transform="translate(-79, -10.5)" class="label branch-label0"><text><tspan class="row" x="0" dy="1em" xml:space="preserve">main</tspan></text></g></g><line class="branch branch1" y2="90" x2="750" y1="90" x1="0"></line><rect transform="translate(-19, 80.5)" height="23" width="122.78333282470703" y="-1.5" x="-138.78333282470703" ry="4" rx="4" class="branchLabelBkg label1"></rect><g class="branchLabel"><g transform="translate(-148.78333282470703, 79.5)" class="label branch-label1"><text><tspan class="row" x="0" dy="1em" xml:space="preserve">release/v2.0.x</tspan></text></g></g><line class="branch branch2" y2="180" x2="750" y1="180" x1="0"></line><rect transform="translate(-19, 170.5)" height="23" width="94.31666564941406" y="-1.5" x="-110.31666564941406" ry="4" rx="4" class="branchLabelBkg label2"></rect><g class="branchLabel"><g transform="translate(-120.31666564941406, 169.5)" class="label branch-label2"><text><tspan class="row" x="0" dy="1em" xml:space="preserve">feature/UI</tspan></text></g></g><line class="branch branch3" y2="270" x2="750" y1="270" x1="0"></line><rect transform="translate(-19, 260.5)" height="23" width="114.88333129882812" y="-1.5" x="-130.88333129882812" ry="4" rx="4" class="branchLabelBkg label3"></rect><g class="branchLabel"><g transform="translate(-140.88333129882812, 259.5)" class="label branch-label3"><text><tspan class="row" x="0" dy="1em" xml:space="preserve">feature/AJAX</tspan></text></g></g><line class="branch branch4" y2="360" x2="750" y1="360" x1="0"></line><rect transform="translate(-19, 350.5)" height="23" width="122.78333282470703" y="-1.5" x="-138.78333282470703" ry="4" rx="4" class="branchLabelBkg label4"></rect><g class="branchLabel"><g transform="translate(-148.78333282470703, 349.5)" class="label branch-label4"><text><tspan class="row" x="0" dy="1em" xml:space="preserve">release/v3.0.x</tspan></text></g></g><line class="branch branch5" y2="450" x2="750" y1="450" x1="0"></line><rect transform="translate(-19, 440.5)" height="23" width="98.3499984741211" y="-1.5" x="-114.3499984741211" ry="4" rx="4" class="branchLabelBkg label5"></rect><g class="branchLabel"><g transform="translate(-124.3499984741211, 439.5)" class="label branch-label5"><text><tspan class="row" x="0" dy="1em" xml:space="preserve">feature/DB</tspan></text></g></g><line class="branch branch6" y2="540" x2="750" y1="540" x1="0"></line><rect transform="translate(-19, 530.5)" height="23" width="118.41666412353516" y="-1.5" x="-134.41666412353516" ry="4" rx="4" class="branchLabelBkg label6"></rect><g class="branchLabel"><g transform="translate(-144.41666412353516, 529.5)" class="label branch-label6"><text><tspan class="row" x="0" dy="1em" xml:space="preserve">bugfix/Button</tspan></text></g></g><line class="branch branch7" y2="630" x2="750" y1="630" x1="0"></line><rect transform="translate(-19, 620.5)" height="23" width="152.4166717529297" y="-1.5" x="-168.4166717529297" ry="4" rx="4" class="branchLabelBkg label7"></rect><g class="branchLabel"><g transform="translate(-178.4166717529297, 619.5)" class="label branch-label7"><text><tspan class="row" x="0" dy="1em" xml:space="preserve">feature/UI_rework</tspan></text></g></g></g><g class="commit-arrows"><path class="arrow arrow2" d="M 10 0 L 10 160 A 20 20, 0, 0, 0, 30 180 L 60 180"></path><path class="arrow arrow3" d="M 10 0 L 10 250 A 20 20, 0, 0, 0, 30 270 L 110 270"></path><path class="arrow arrow1" d="M 10 0 L 10 70 A 20 20, 0, 0, 0, 30 90 L 160 90"></path><path class="arrow arrow3" d="M 110 270 L 140 270 A 20 20, 0, 0, 0, 160 250 L 160 90"></path><path class="arrow arrow2" d="M 60 180 L 210 180"></path><path class="arrow arrow1" d="M 160 90 L 260 90"></path><path class="arrow arrow2" d="M 210 180 L 240 180 A 20 20, 0, 0, 0, 260 160 L 260 90"></path><path class="arrow arrow0" d="M 10 0 L 310 0"></path><path class="arrow arrow1" d="M 260 90 L 290 90 A 20 20, 0, 0, 0, 310 70 L 310 0"></path><path class="arrow arrow5" d="M 310 0 L 310 430 A 20 20, 0, 0, 0, 330 450 L 360 450"></path><path class="arrow arrow4" d="M 310 0 L 310 340 A 20 20, 0, 0, 0, 330 360 L 410 360"></path><path class="arrow arrow5" d="M 360 450 L 390 450 A 20 20, 0, 0, 0, 410 430 L 410 360"></path><path class="arrow arrow6" d="M 260 90 L 260 520 A 20 20, 0, 0, 0, 280 540 L 460 540"></path><path class="arrow arrow1" d="M 260 90 L 510 90"></path><path class="arrow arrow6" d="M 460 540 L 490 540 A 20 20, 0, 0, 0, 510 520 L 510 90"></path><path class="arrow arrow7" d="M 410 360 L 410 610 A 20 20, 0, 0, 0, 430 630 L 560 630"></path><path class="arrow arrow4" d="M 410 360 L 610 360"></path><path class="arrow arrow7" d="M 560 630 L 590 630 A 20 20, 0, 0, 0, 610 610 L 610 360"></path><path class="arrow arrow4" d="M 610 360 L 660 360"></path><path class="arrow arrow6" d="M 460 540 L 640 540 A 20 20, 0, 0, 0, 660 520 L 660 360"></path><path class="arrow arrow0" d="M 310 0 L 710 0"></path><path class="arrow arrow4" d="M 660 360 L 690 360 A 20 20, 0, 0, 0, 710 340 L 710 0"></path></g><g class="commit-bullets"><circle class="commit 0-1e7edca commit0" r="10" cy="0" cx="10"></circle><circle class="commit 1-885890b commit2" r="10" cy="180" cx="60"></circle><circle class="commit 2-f799c7e commit3" r="10" cy="270" cx="110"></circle><circle class="commit 3-4ed5c64 commit1" r="9" cy="90" cx="160"></circle><circle class="commit commit-merge 3-4ed5c64 commit1" r="6" cy="90" cx="160"></circle><circle class="commit 4-f4da152 commit2" r="10" cy="180" cx="210"></circle><circle class="commit 5-ba7b576 commit1" r="9" cy="90" cx="260"></circle><circle class="commit commit-merge 5-ba7b576 commit1" r="6" cy="90" cx="260"></circle><circle class="commit 6-019cc90 commit0" r="9" cy="0" cx="310"></circle><circle class="commit commit-merge 6-019cc90 commit0" r="6" cy="0" cx="310"></circle><circle class="commit 7-98680ec commit5" r="10" cy="450" cx="360"></circle><circle class="commit 8-7a059a6 commit4" r="9" cy="360" cx="410"></circle><circle class="commit commit-merge 8-7a059a6 commit4" r="6" cy="360" cx="410"></circle><circle class="commit 9-805fab5 commit6" r="10" cy="540" cx="460"></circle><circle class="commit 10-98bc11a commit1" r="9" cy="90" cx="510"></circle><circle class="commit commit-merge 10-98bc11a commit1" r="6" cy="90" cx="510"></circle><circle class="commit 11-b66b4c1 commit7" r="10" cy="630" cx="560"></circle><circle class="commit 12-c2800f0 commit4" r="9" cy="360" cx="610"></circle><circle class="commit commit-merge 12-c2800f0 commit4" r="6" cy="360" cx="610"></circle><circle class="commit 13-7250c07 commit4" r="9" cy="360" cx="660"></circle><circle class="commit commit-merge 13-7250c07 commit4" r="6" cy="360" cx="660"></circle><circle class="commit 14-813467d commit0" r="9" cy="0" cx="710"></circle><circle class="commit commit-merge 14-813467d commit0" r="6" cy="0" cx="710"></circle></g><g class="commit-labels"><polygon points="-19,-17.2
          -19,-21.2
          -11,-26.7
          31,-26.7
          31,-11.7
          -11,-11.7" class="tag-label-bkg"></polygon><circle class="tag-hole" r="1.5" cy="-19.2" cx="-15"></circle><text x="-7" class="tag-label" y="-16">v1.0.0</text><polygon points="281,-17.2
          281,-21.2
          289,-26.7
          331,-26.7
          331,-11.7
          289,-11.7" class="tag-label-bkg"></polygon><circle class="tag-hole" r="1.5" cy="-19.2" cx="285"></circle><text x="293" class="tag-label" y="-16">v2.0.0</text><polygon points="481,72.8
          481,68.8
          489,63.3
          531,63.3
          531,78.3
          489,78.3" class="tag-label-bkg"></polygon><circle class="tag-hole" r="1.5" cy="70.8" cx="485"></circle><text x="493" class="tag-label" y="74">v2.0.1</text><polygon points="681,-17.2
          681,-21.2
          689,-26.7
          731,-26.7
          731,-11.7
          689,-11.7" class="tag-label-bkg"></polygon><circle class="tag-hole" r="1.5" cy="-19.2" cx="685"></circle><text x="693" class="tag-label" y="-16">v3.0.0</text></g></svg>